<svg xmlns="http://www.w3.org/2000/svg" width="26.025" height="23.659" viewBox="0 0 26.025 23.659"><defs><style>.a,.b{fill:#97005e;}.a{fill-rule:evenodd;}</style></defs><path class="a" d="M23.476,4.366H22.293V3.183a1.183,1.183,0,0,0-2.366,0V4.366H8.1V3.183a1.183,1.183,0,0,0-2.366,0V4.366H4.549A3.549,3.549,0,0,0,1,7.915v14.2a3.549,3.549,0,0,0,3.549,3.549H23.476a3.549,3.549,0,0,0,3.549-3.549V7.915A3.549,3.549,0,0,0,23.476,4.366ZM3.366,7.915A1.183,1.183,0,0,1,4.549,6.732H23.476a1.183,1.183,0,0,1,1.183,1.183V9.1H3.366Zm21.293,14.2a1.183,1.183,0,0,1-1.183,1.183H4.549A1.183,1.183,0,0,1,3.366,22.11V11.464H24.659Z" transform="translate(-1 -2)"/><rect class="b" width="4" height="4" rx="0.8" transform="translate(4.696 11.981)"/><rect class="b" width="4" height="4" rx="0.8" transform="translate(10.696 11.981)"/></svg>