<svg xmlns="http://www.w3.org/2000/svg" width="20.806" height="20.806" viewBox="0 0 20.806 20.806"><defs><style>.a{fill:#97005e;}</style></defs><path class="a" d="M11.9,8.12A3.783,3.783,0,1,0,15.686,11.9,3.782,3.782,0,0,0,11.9,8.12Zm8.455,2.837a8.506,8.506,0,0,0-7.509-7.509V1.5H10.957V3.448a8.506,8.506,0,0,0-7.509,7.509H1.5v1.891H3.448a8.506,8.506,0,0,0,7.509,7.509v1.948h1.891V20.357a8.506,8.506,0,0,0,7.509-7.509h1.948V10.957ZM11.9,18.523a6.62,6.62,0,1,1,6.62-6.62A6.615,6.615,0,0,1,11.9,18.523Z" transform="translate(-1.5 -1.5)"/></svg>