<svg xmlns="http://www.w3.org/2000/svg" width="24.083" height="16.062" viewBox="0 0 24.083 16.062"><defs><style>.a{fill:#c17ca7;}</style></defs><path class="a" d="M23.233,11.559a1.093,1.093,0,0,0-.008,1.539l5.086,5.094H8.954a1.087,1.087,0,0,0,0,2.175H28.3l-5.086,5.094A1.1,1.1,0,0,0,23.225,27a1.083,1.083,0,0,0,1.531-.008l6.893-6.943h0a1.221,1.221,0,0,0,.226-.343,1.038,1.038,0,0,0,.084-.418,1.09,1.09,0,0,0-.31-.761l-6.893-6.943A1.066,1.066,0,0,0,23.233,11.559Z" transform="translate(31.958 27.314) rotate(180)"/></svg>