<svg xmlns="http://www.w3.org/2000/svg" width="51.836" height="63.525" viewBox="0 0 51.836 63.525">
  <g id="Group_1859" data-name="Group 1859" transform="translate(0 0.503)">
    <path id="Path_52319" data-name="Path 52319" d="M212.74,180.908a15.607,15.607,0,0,1,12.872,5.31,10.179,10.179,0,0,1,2.056,4.111,10.5,10.5,0,0,0,2.407,4.353,11.59,11.59,0,0,0,3.232,2.309c.836.374,1.22.736,1.143,1.429a2.329,2.329,0,0,1-.912,1.506c-.462.374-.89.725-.956,1.242-.044.429.176.923.934,1.22a1.06,1.06,0,0,1,.715,1.2,1.172,1.172,0,0,1-.517.814,3.343,3.343,0,0,1-1.077.385c.879-.165,1.594.055,1.813.6a1.494,1.494,0,0,1-.329,1.495,1.611,1.611,0,0,0-.264,1.715,7,7,0,0,0,.648,1.352c1.232,2.353-1.374,3.749-3.319,4.221a32.749,32.749,0,0,0-9.124,3.188,13.133,13.133,0,0,0-6.937,10.3,14.423,14.423,0,0,0,4.112,11.235,15.775,15.775,0,0,0,7.464,4.3,24.77,24.77,0,0,1-20.106-6.376c-7.211-7.013-9.311-18.3-.517-27.525-.758,3.6-.286,8.739,5.5,10.762-5.552-3.463-3.584-9.168-.913-12.95,2.452-3.507,4.21-5.573,5.706-7.772C220.49,193.264,220.984,184.162,212.74,180.908Z" transform="translate(-183.502 -180.893)" fill="#97055e" stroke="rgba(0,0,0,0)" stroke-miterlimit="10" stroke-width="1" fill-rule="evenodd"/>
    <g id="Group_1858" data-name="Group 1858" transform="translate(0 0.147)">
      <path id="Path_52320" data-name="Path 52320" d="M210.86,181.04c7.75,6.871,4.221,14.972-3.386,22.129-2.209,2.088-4.584,3.946-6.353,6.474-4.178,5.98-6.827,15.115.3,24.58-9.036-6.486-10.366-17.456-4.979-25.756,1.989-3.067,5.474-5.573,8.365-8.123C210.607,195.232,215.972,189.439,210.86,181.04Z" transform="translate(-183.502 -181.04)" fill="#97055e" fill-rule="evenodd"/>
      <path id="Path_52321" data-name="Path 52321" d="M209.288,181.293c4.056,8.915-2.682,12.961-9.542,19.139-3.231,2.924-6.738,6.265-8.387,10.377-4.309,10.047.363,21.842,8.9,27.756-6.079-2.561-10.4-6.123-13.114-10.278-5.332-8.113-4.958-19.27,2.056-26.207a67.722,67.722,0,0,1,12.212-9C205.957,190.241,210.541,186.658,209.288,181.293Z" transform="translate(-183.502 -181.04)" fill="#97055e" fill-rule="evenodd"/>
    </g>
  </g>
</svg>
