<svg xmlns="http://www.w3.org/2000/svg" width="57.332" height="66.769" viewBox="0 0 57.332 66.769">
  <path id="Path_52377" data-name="Path 52377" d="M237.821,404.978c-.075-.286-.537-.822-.774-.8a6.689,6.689,0,0,1-1.7-.187,3.689,3.689,0,0,1-2.011-1.258,5.935,5.935,0,0,0-1.074-.834,3.643,3.643,0,0,0,.125-.461c.037-.212-.113-.237-.262-.225a2.14,2.14,0,0,1-.412,0,.638.638,0,0,1-.2-.112,2.065,2.065,0,0,0-.088-.5c-.075-.212-.262-.585-.374-.859a11.1,11.1,0,0,1-.138-2.467c0-1.258.587-3.089.849-4.933s.163-4.085.238-4.82a20.55,20.55,0,0,1,.624-2.791,4.542,4.542,0,0,0,.2-1.457,2.687,2.687,0,0,0-.862-1.445c-.5-.349-.961-.847-1.811-1.52s-2.373-2.616-4.409-3.886-3.1-1.694-3.959-2.242a14.238,14.238,0,0,0-2.073-1.022s-.187-.486-.075-.61a1.494,1.494,0,0,0,.175-.536l.237-.187c.238-.187.35-1.295.437-1.868a37.963,37.963,0,0,1,1.162-3.7,20.824,20.824,0,0,0,.649-3.538l.3.424a2.633,2.633,0,0,0,1.449,1.021c.737.237.924-.074,1.274-.4s.5-.424,1.5-1.3a37.324,37.324,0,0,0,3.4-3.861,9.485,9.485,0,0,1,1.111-1.408,3.475,3.475,0,0,0,.925-.8,9.335,9.335,0,0,0,.861-1.37,3.137,3.137,0,0,0,.475-.959.7.7,0,0,0-.162-.7c-.175-.125-.45.1-.45.1a1.363,1.363,0,0,0,.087-.274c.025-.137.225-.486-.15-.71s-.512.049-.512.049a.528.528,0,0,0-.4-.523.423.423,0,0,0-.412.112.649.649,0,0,0-.188-.647.53.53,0,0,0-.574.012.325.325,0,1,1-.537-.112c-.163-.287-.4-.374-.549-.324s-.013.386,0,.648-.162.511-.112.785a1.852,1.852,0,0,1-.287.971c-.124.2-.075.4-.019,1a4.93,4.93,0,0,1-.019.934c.013.2.075.461-.125.648s-.912.946-1.536,1.594a4.244,4.244,0,0,1-1.923,1.1c-.737.262-1.037.337-1.037.337a1.4,1.4,0,0,1-.325-.623,4.926,4.926,0,0,0-.15-.723,1.1,1.1,0,0,0,.3-.66c-.025-.062-.262-.473-.624-1.108a8.955,8.955,0,0,0-.775-1.134s-.025-.2-.062-.361a.937.937,0,0,0-.175-.324s-.063-.374-.287-1.233a4.379,4.379,0,0,0-.587-1.358l.162-.112c.162-.112.225-.536.375-.573a4.9,4.9,0,0,1,.824-.087,1.387,1.387,0,0,0,.8-.225.692.692,0,0,0,.288-.685.228.228,0,0,1,.137-.274c.1-.062.25-.162.237-.286a.684.684,0,0,0-.225-.4c-.137-.137-.124-.137-.024-.212a4.21,4.21,0,0,0,.474-.236c.15-.125-.025-.362.162-.449s.5-.062.737-.162.163-.523,0-.921-.474-1.034-.412-1.221.238-.175.262-.287a2.146,2.146,0,0,0-.062-.934,3.043,3.043,0,0,1-.062-1.034c0-.349-.2-.436-.2-.623a.69.69,0,0,1,.25-.535,1.345,1.345,0,0,0,0-1.321c-.275-.274-.263-.4-.55-.623a1.429,1.429,0,0,0-.849-.324c-.25,0-1.1-.2-1.6-.286a10.4,10.4,0,0,0-2.111-.087,2.567,2.567,0,0,0-1.873.934,13.709,13.709,0,0,0-1.024,1.333,3.779,3.779,0,0,0-.5,2.08,10.983,10.983,0,0,0,.35,2.653c.137.823.237,1.234.237,1.358a3.309,3.309,0,0,1-.087.474c-.263.112-.288.411-.45.448s-.287.287-.5.4a1.691,1.691,0,0,0-.575.5,1.955,1.955,0,0,1-.5.411,5.228,5.228,0,0,0-1.111.112c-.562.125-.874.324-1.149.386s-.387.3-.65.337-.724.373-.974.323a7.363,7.363,0,0,0-1.2.113c-.337.024-.437.074-.524.062a1.23,1.23,0,0,0-.363.112,15.4,15.4,0,0,0-2.61.934,27.667,27.667,0,0,0-2.685,1.52,1.44,1.44,0,0,0-.787.685,6.777,6.777,0,0,0,.15,1.993,47.578,47.578,0,0,0,1.186,5.493,23.688,23.688,0,0,0,1.212,3.04,1.689,1.689,0,0,1,.1.822c-.063.162-.287.411-.575.972a1.836,1.836,0,0,0-.212,1.033,1.021,1.021,0,0,0,0,.549,1.245,1.245,0,0,0,.275.616.552.552,0,0,0,.4.206,4.069,4.069,0,0,0,.363.373.948.948,0,0,0,.424.137c0,.175-.037.436.213.549a.521.521,0,0,0,.437.012,2.239,2.239,0,0,0-.1.884.464.464,0,0,0,.449.324,3.636,3.636,0,0,0-.424.885c-.225.622-.387,2.491-.487,2.9a5.171,5.171,0,0,1-1.012,2.454,24.688,24.688,0,0,0-2.248,3.837,9.128,9.128,0,0,0-.662,2.217,8.107,8.107,0,0,1-1.049,1.619,3.685,3.685,0,0,1-1.986,1c-1.1.237-2.485.361-3.822.735a3.968,3.968,0,0,0-2.073,1.532,7.092,7.092,0,0,1-1.324.847,17.567,17.567,0,0,0-3.035,2.255,12.6,12.6,0,0,1-2.161,1.445.547.547,0,0,0-.274.1,1.9,1.9,0,0,1-.537.162,6.115,6.115,0,0,0-.962-.224,7.441,7.441,0,0,0-.837-.125c-.262.013-.8-.211-1.211.1a5.371,5.371,0,0,0-.987,2.143,16.116,16.116,0,0,1-1.661,2.777,8.116,8.116,0,0,0-.662,2.679,4.785,4.785,0,0,0,.15,2.08c.312.947.574,1.059.749,1.109s.238-.137.587-.524a5.344,5.344,0,0,0,.837-1.37,6.023,6.023,0,0,1,1.486-1.744,19.6,19.6,0,0,1,1.5-1.37,1.927,1.927,0,0,0,.724-.6,6.978,6.978,0,0,1,.575-.7c.3-.323.949-.685,1.136-.871a14.632,14.632,0,0,1,1.687-1.284,19.349,19.349,0,0,1,4.346-1.719c1.873-.6,3.272-1.42,4.671-1.9a30.562,30.562,0,0,1,4-.86,3.506,3.506,0,0,0,1.873-.81,16.729,16.729,0,0,1,1.524-1.806c.974-.884,1.948-1.557,3.16-2.79a24.338,24.338,0,0,0,2.885-3.376,8.387,8.387,0,0,1,1.861-2.08,21.653,21.653,0,0,1,3.921,1.906,15.167,15.167,0,0,0,4.634,1.619,13.137,13.137,0,0,1,2.548.623,6.575,6.575,0,0,1,1.349.959,7.613,7.613,0,0,1-.113,1.42,13.744,13.744,0,0,0,.213,4.3,40.524,40.524,0,0,1,.537,5.568,15.78,15.78,0,0,1-.188,3.836s-.062.05-.062.212-.188.486-.212.81a9.236,9.236,0,0,1-.313,1.1,3.529,3.529,0,0,0-.162,1.221c.037.523.075,1.046.812,1.221s2.16.037,3.1.224a11.638,11.638,0,0,0,3.46.834,6.1,6.1,0,0,0,3.247-.61C237.434,405.614,237.9,405.265,237.821,404.978Zm-25.729-45.342c.025,1.034.163,2.778.113,3.5a16.358,16.358,0,0,0,.125,2.179,12.6,12.6,0,0,1-.5,1.881,1.9,1.9,0,0,0-.175.893,5.521,5.521,0,0,1-.861.64,7.072,7.072,0,0,0-.987.742.8.8,0,0,1-.337.167,1.92,1.92,0,0,0,.012-.967,10,10,0,0,1-.257-1.213c-.106-.548-.342-.7-.342-1.034a7.777,7.777,0,0,0-.263-1.632c-.149-.535-.612-2.342-.811-3.4a6.206,6.206,0,0,1,.075-2.566c.149-.835.249-2.367.249-2.367.35-.075,1.6.087,2.2.075a5.23,5.23,0,0,0,1.262-.225,1.82,1.82,0,0,0,.15.112c.075.05.15.025.287-.024a3.037,3.037,0,0,1,.3-.088A20.134,20.134,0,0,0,212.092,359.636Z" transform="translate(-180.497 -339.636)" fill="#97055e"/>
</svg>
