<svg xmlns="http://www.w3.org/2000/svg" width="42.995" height="74.889" viewBox="0 0 42.995 74.889">
  <g id="Group_2407" data-name="Group 2407" transform="translate(-380.736 -1085.97)">
    <path id="Path_52324" data-name="Path 52324" d="M394.056,185.807a19.467,19.467,0,0,0-28.278,0c-1.676,1.952-5.237,13.32-1.676,28.707s14.107,17.109,15.815,17.109,12.254-1.722,15.815-17.109S395.732,187.759,394.056,185.807Z" transform="translate(22.527 911.01)" fill="#edd6e4"/>
    <path id="Path_52325" data-name="Path 52325" d="M377.918,188.8s-15.135,5.4-15.343,17.454c0,0-2.356-13.253-1.836-15.019S378.3,178.295,378.3,178.295s26.452,5.482,19.1,26.315c0,0-3.548-11.484-9.788-11.938C381.9,192.256,380.724,189.84,377.918,188.8Z" transform="translate(22.527 911.01)" fill="#97055e"/>
    <path id="Path_52330" data-name="Path 52330" d="M376.72,182.823s22.887-4.564,20.79,24.36l1.394.484s9.45-32.193-21.53-32.193Z" transform="translate(22.092 910.496)" fill="#97055e"/>
    <path id="Path_52331" data-name="Path 52331" d="M376.72,182.729s4.045-5.691,9.157-6.4c0,0-7.252-4.312-17.7,2.365-10.641,6.8-11.344,19.328-8.6,28.869a3.578,3.578,0,0,1,2.828-.308S358.441,185.372,376.72,182.729Z" transform="translate(22.527 911.01)" fill="#97055e"/>
    <path id="Path_52332" data-name="Path 52332" d="M383.824,203.935c.556-.356,3.973-2.061,5.723-1.828a31.409,31.409,0,0,1,4.438,1.8A8.464,8.464,0,0,0,390.171,201a12.942,12.942,0,0,0-6.967,2.041C382.661,203.443,383.293,204.314,383.824,203.935Z" transform="translate(22.527 911.01)" fill="#97055e"/>
    <path id="Path_52333" data-name="Path 52333" d="M375.467,203.924c-.542-.378-3.888-2.218-5.645-2.055a31.577,31.577,0,0,0-4.506,1.62,8.456,8.456,0,0,1,3.927-2.754,12.934,12.934,0,0,1,6.88,2.316C376.649,203.478,375.983,204.323,375.467,203.924Z" transform="translate(22.527 911.01)" fill="#97055e"/>
    <path id="Path_52334" data-name="Path 52334" d="M374.673,220.778s-.479-.429-.249-.5c1.389-.428,3.63-1.539,5.11-.721,0,0,1.342-1.014,5.269.558.093.037-.086.259,0,.314,0,0-4.158.551-5.079.551S374.673,220.778,374.673,220.778Z" transform="translate(22.527 911.01)" fill="#97055e"/>
    <path id="Path_52335" data-name="Path 52335" d="M373.889,220.981a4.555,4.555,0,0,1,1.115.963c.62,1.1,2.131,3.178,4.674,3.221,2.355.04,3.88-2.046,4.613-3.38a5.453,5.453,0,0,1,1.292-1.314c-.209.2-1.228-.215-1.381,0a5.038,5.038,0,0,1-.455.589c-2.724,2.847-6.976,1.733-8.092.244a1.579,1.579,0,0,1-.287-.553C375.31,220.517,373.889,220.981,373.889,220.981Z" transform="translate(22.527 911.01)" fill="#97055e"/>
    <g id="Group_1876" data-name="Group 1876" transform="translate(22.527 911.01)">
      <g id="Group_1875" data-name="Group 1875">
        <path id="Path_52348" data-name="Path 52348" d="M387.669,210.162a4.894,4.894,0,0,1-3.544-1.408l.541-.907-.27.453.268-.455c.105.115,2.63,2.778,7.321-.418h0A5.649,5.649,0,0,1,387.669,210.162Z" fill="#97055e"/>
      </g>
    </g>
    <g id="Group_1878" data-name="Group 1878" transform="translate(22.527 911.01)">
      <g id="Group_1877" data-name="Group 1877">
        <path id="Path_52349" data-name="Path 52349" d="M371.523,210.162a4.894,4.894,0,0,0,3.544-1.408l-.541-.907.27.453-.268-.455c-.105.115-2.63,2.778-7.321-.418h0A5.649,5.649,0,0,0,371.523,210.162Z" fill="#97055e"/>
      </g>
    </g>
    <path id="Path_52326" data-name="Path 52326" d="M397.125,208.056a1.794,1.794,0,0,1,2.2-.888,3.945,3.945,0,0,1,1.846,2.131,5.363,5.363,0,0,1,.25,2.6c-.29,2.243-3.914,6.145-5.639,6.376l-.5.069" transform="matrix(1, 0.017, -0.017, 1, 25.932, 902.503)" fill="#e6c6da"/>
    <path id="Path_52378" data-name="Path 52378" d="M1.842,10.285a1.794,1.794,0,0,0,2.2.888A3.945,3.945,0,0,0,5.886,9.042a5.363,5.363,0,0,0,.25-2.6C5.846,4.2,2.221.3.5.069L0,0" transform="matrix(-1, 0.017, -0.017, -1, 387.24, 1127.709)" fill="#e6c6da"/>
    <g id="Group_2405" data-name="Group 2405" transform="translate(20.153 9.866)" style="isolation: isolate">
      <path id="Path_52338" data-name="Path 52338" d="M369.934,224.126l-.845-3.1s-.134-6.581-1.359-6.643c0,0,.4-3.975-1.655-3.636,0,0-.443-1.406-1.506-1.125L363.9,212.8a5.265,5.265,0,0,0-.447-1.039c-.173-.38-.78-1.046-1.666.084l-1.339,7.264,1.234,8.851,3.077,7.06-4.311,14.316h9.3l2.144-15.491S372.79,227.093,369.934,224.126Z" transform="translate(4.714 901.658)" fill="#f4c8e3"/>
      <g id="Group_1862" data-name="Group 1862" transform="translate(4.714 901.658)">
        <g id="Group_1861" data-name="Group 1861">
          <path id="Path_52340" data-name="Path 52340" d="M363.605,212.766c-.733,3.763-1.55,7.356-.789,11.187.074.37.653.278.579-.093-.752-3.782.071-7.32.793-11.03.072-.371-.511-.432-.583-.064Z" fill="#edd6e4"/>
        </g>
      </g>
      <g id="Group_1864" data-name="Group 1864" transform="translate(4.714 901.658)">
        <g id="Group_1863" data-name="Group 1863">
          <path id="Path_52341" data-name="Path 52341" d="M365.714,211.109c-.8,4.128-1.687,8.318-.862,12.515.073.369.652.277.579-.094-.815-4.146.078-8.282.866-12.358.072-.371-.512-.431-.583-.063Z" fill="#edd6e4"/>
        </g>
      </g>
      <g id="Group_1866" data-name="Group 1866" transform="translate(4.714 901.658)">
        <g id="Group_1865" data-name="Group 1865">
          <path id="Path_52342" data-name="Path 52342" d="M367.006,214.681c-.122,1.52-.385,3.037-.443,4.561a16.173,16.173,0,0,0,.565,4.373c.087.365.667.274.579-.094a15.35,15.35,0,0,1-.551-4.422c.079-1.455.317-2.9.433-4.355a.293.293,0,0,0-.583-.063Z" fill="#edd6e4"/>
        </g>
      </g>
    </g>
    <g id="Group_2406" data-name="Group 2406" transform="translate(408.404 1121.112)" style="isolation: isolate">
      <path id="Path_52338-2" data-name="Path 52338" d="M362.532,224.126l.845-3.1s.134-6.581,1.359-6.643c0,0-.4-3.975,1.655-3.636,0,0,.443-1.406,1.506-1.125l.673,3.174a5.265,5.265,0,0,1,.447-1.039c.173-.38.78-1.046,1.666.084l1.339,7.264-1.234,8.851-3.077,7.06,4.311,14.316h-9.3l-2.144-15.491S359.676,227.093,362.532,224.126Z" transform="translate(-360.444 -209.587)" fill="#f4c8e3"/>
      <g id="Group_1862-2" data-name="Group 1862" transform="translate(7.828 2.932)">
        <g id="Group_1861-2" data-name="Group 1861" transform="translate(0)">
          <path id="Path_52340-2" data-name="Path 52340" d="M363.1,212.766c.733,3.763,1.55,7.356.789,11.187-.074.37-.653.278-.579-.093.752-3.782-.071-7.32-.793-11.03-.072-.371.511-.432.583-.064Z" transform="translate(-362.511 -212.519)" fill="#edd6e4"/>
        </g>
      </g>
      <g id="Group_1864-2" data-name="Group 1864" transform="translate(5.719 1.275)">
        <g id="Group_1863-2" data-name="Group 1863">
          <path id="Path_52341-2" data-name="Path 52341" d="M365.112,211.109c.8,4.128,1.687,8.318.862,12.515-.073.369-.652.277-.579-.094.815-4.146-.078-8.282-.866-12.358-.072-.371.512-.431.583-.063Z" transform="translate(-364.523 -210.861)" fill="#edd6e4"/>
        </g>
      </g>
      <g id="Group_1866-2" data-name="Group 1866" transform="translate(4.306 4.841)">
        <g id="Group_1865-2" data-name="Group 1865" transform="translate(0)">
          <path id="Path_52342-2" data-name="Path 52342" d="M367.266,214.681c.122,1.52.385,3.037.443,4.561a16.172,16.172,0,0,1-.565,4.373c-.087.365-.667.274-.579-.094a15.35,15.35,0,0,0,.551-4.422c-.079-1.455-.317-2.9-.433-4.355a.293.293,0,0,1,.583-.063Z" transform="translate(-366.556 -214.428)" fill="#edd6e4"/>
        </g>
      </g>
    </g>
  </g>
</svg>
