<svg xmlns="http://www.w3.org/2000/svg" width="52.814" height="48.892" viewBox="0 0 52.814 48.892">
  <g id="Group_2401" data-name="Group 2401" transform="translate(63.717 231.258)">
    <path id="Path_52367" data-name="Path 52367" d="M230.9,543.9a7.185,7.185,0,0,1-2.234,2.619l-9,6.49-8.448-11.719,9-6.489h0a7.181,7.181,0,0,1,4.216-1.364,7.276,7.276,0,0,1,3.247.766,7.235,7.235,0,0,1,3.984,6.45,7.278,7.278,0,0,1-.766,3.248Zm-33.076,8.127-8.547-7.078h0a7.214,7.214,0,0,1-.956-10.17h0a7.182,7.182,0,0,1,2.539-1.955,7.213,7.213,0,0,1,7.631,1l8.546,7.079-9.213,11.125Zm31.6-21.316a11.127,11.127,0,0,0-11.493.923h0l-8.537,6.154-8.418-6.972a11.121,11.121,0,0,0-15.667,1.473h0a11.122,11.122,0,0,0,1.472,15.667l1.246-1.5-1.246,1.5,10.051,8.324a1.952,1.952,0,0,0,2.748-.258l9.323-11.257,8.73,12.111a1.953,1.953,0,0,0,2.725.442l10.586-7.631a11.129,11.129,0,0,0-1.52-18.975Z" transform="translate(-246.473 -759.513)" fill="#97055e"/>
    <path id="Path_52368" data-name="Path 52368" d="M226.867,544.782a.586.586,0,0,1-.1-1.077,2.558,2.558,0,0,0,1.069-3.447.585.585,0,1,1,1.035-.546,3.724,3.724,0,0,1-1.559,5.028A.582.582,0,0,1,226.867,544.782Z" transform="translate(-246.473 -759.513)" fill="#97055e"/>
    <g id="Group_1895" data-name="Group 1895" transform="translate(-246.473 -759.513)">
      <path id="Path_52369" data-name="Path 52369" d="M208.054,554.442h.847l-.439-.986Z" fill="#97055e"/>
      <path id="Path_52370" data-name="Path 52370" d="M208.476,551.558a2.652,2.652,0,1,0,2.653,2.652A2.653,2.653,0,0,0,208.476,551.558Zm.948,4.038-.363-.807H207.9l-.34.807h-.4l1.17-2.739h.274l1.221,2.739Z" fill="#97055e"/>
    </g>
    <path id="Path_52371" data-name="Path 52371" d="M200.349,569.621a3.763,3.763,0,1,0,3.764,3.763A3.763,3.763,0,0,0,200.349,569.621Zm1.249,5.31a2.711,2.711,0,0,1-1.32.312,2.044,2.044,0,0,1-1.032-.244,1.811,1.811,0,0,1-.67-.673,1.834,1.834,0,0,1-.247-.928,1.776,1.776,0,0,1,.565-1.333,1.942,1.942,0,0,1,1.394-.54,3.26,3.26,0,0,1,1.271.3v.558a2.511,2.511,0,0,0-1.245-.364,1.439,1.439,0,0,0-1.035.394,1.389,1.389,0,0,0-.007,1.968,1.445,1.445,0,0,0,1.037.385,2.346,2.346,0,0,0,1.289-.406Z" transform="translate(-246.473 -759.513)" fill="#97055e"/>
    <g id="Group_1896" data-name="Group 1896" transform="translate(-246.473 -759.513)">
      <path id="Path_52372" data-name="Path 52372" d="M205.823,560.094a3.763,3.763,0,1,0,3.763,3.763A3.763,3.763,0,0,0,205.823,560.094Zm1.672,4.446a1.756,1.756,0,0,1-.99.952,1.841,1.841,0,0,1-.367.1,4.911,4.911,0,0,1-.638.026h-1.12v-3.532h1.193a2.521,2.521,0,0,1,1.142.217,1.631,1.631,0,0,1,.668.637,1.762,1.762,0,0,1,.248.916A1.73,1.73,0,0,1,207.495,564.54Z" fill="#97055e"/>
      <path id="Path_52373" data-name="Path 52373" d="M206.4,562.684a1.383,1.383,0,0,0-.348-.114,3.479,3.479,0,0,0-.529-.028h-.633v2.631h.648a2.624,2.624,0,0,0,.59-.052,1.417,1.417,0,0,0,.351-.132,1.18,1.18,0,0,0,.256-.2,1.31,1.31,0,0,0,.375-.96,1.227,1.227,0,0,0-.71-1.149Z" fill="#97055e"/>
    </g>
    <g id="Group_1897" data-name="Group 1897" transform="translate(-246.473 -759.513)">
      <path id="Path_52374" data-name="Path 52374" d="M215.676,571.842a2.06,2.06,0,0,0-.669-.079h-.573v1.358h.6a1.976,1.976,0,0,0,.682-.078.645.645,0,0,0,.288-.244.632.632,0,0,0,.109-.356.607.607,0,0,0-.115-.359A.683.683,0,0,0,215.676,571.842Z" fill="#97055e"/>
      <path id="Path_52375" data-name="Path 52375" d="M215.539,571.03a.625.625,0,0,0,.207-.485q0-.617-.785-.616h-.527v1.288h.407A1.038,1.038,0,0,0,215.539,571.03Z" fill="#97055e"/>
      <path id="Path_52376" data-name="Path 52376" d="M214.892,567.762a3.763,3.763,0,1,0,3.763,3.763A3.763,3.763,0,0,0,214.892,567.762Zm1.691,5.322a1.217,1.217,0,0,1-.495.42,1.832,1.832,0,0,1-.817.163H213.82v-4.284h1.123a1.959,1.959,0,0,1,.828.143,1.026,1.026,0,0,1,.61.97.934.934,0,0,1-.653.905,1.325,1.325,0,0,1,.746.386,1.006,1.006,0,0,1,.278.711A1.042,1.042,0,0,1,216.583,573.084Z" fill="#97055e"/>
    </g>
  </g>
</svg>
