<svg xmlns="http://www.w3.org/2000/svg" width="64.007" height="58.12" viewBox="0 0 64.007 58.12">
  <g id="Group_2408" data-name="Group 2408" transform="translate(-1040.692 -1094.44)">
    <g id="Group_2403" data-name="Group 2403">
      <path id="Path_52350" data-name="Path 52350" d="M362.775,353.637h.967a.967.967,0,1,0,0-1.935h-.967a.967.967,0,1,0,0,1.935Z" transform="translate(689.527 750.479)" fill="#97055e"/>
      <path id="Path_52351" data-name="Path 52351" d="M367.612,353.637H380.19a.967.967,0,0,0,0-1.935H367.612a.967.967,0,0,0,0,1.935Z" transform="translate(689.527 750.479)" fill="#97055e"/>
      <path id="Path_52352" data-name="Path 52352" d="M363.742,360.409h-2.9a1.935,1.935,0,0,0-1.935,1.935v2.9a1.935,1.935,0,0,0,1.935,1.935h2.9a1.935,1.935,0,0,0,1.935-1.935v-2.9A1.935,1.935,0,0,0,363.742,360.409Zm-2.9,4.838v-2.9h2.9v2.9Z" transform="translate(689.527 750.479)" fill="#97055e"/>
      <path id="Path_52353" data-name="Path 52353" d="M363.742,369.117h-2.9a1.935,1.935,0,0,0-1.935,1.935v2.9a1.935,1.935,0,0,0,1.935,1.936h2.9a1.935,1.935,0,0,0,1.935-1.936v-2.9A1.935,1.935,0,0,0,363.742,369.117Zm-2.9,4.837v-2.9h2.9v2.9Z" transform="translate(689.527 750.479)" fill="#97055e"/>
      <path id="Path_52354" data-name="Path 52354" d="M363.742,377.825h-2.9a1.935,1.935,0,0,0-1.935,1.935v2.9a1.935,1.935,0,0,0,1.935,1.935h2.9a1.935,1.935,0,0,0,1.935-1.935v-2.9A1.935,1.935,0,0,0,363.742,377.825Zm-2.9,4.837v-2.9h2.9v2.9Z" transform="translate(689.527 750.479)" fill="#97055e"/>
      <path id="Path_52355" data-name="Path 52355" d="M363.742,386.532h-2.9a1.935,1.935,0,0,0-1.935,1.935v2.9a1.935,1.935,0,0,0,1.935,1.935h2.9a1.935,1.935,0,0,0,1.935-1.935v-2.9A1.935,1.935,0,0,0,363.742,386.532Zm-2.9,4.838v-2.9h2.9v2.9Z" transform="translate(689.527 750.479)" fill="#97055e"/>
      <path id="Path_52356" data-name="Path 52356" d="M368.58,365.247h13.545a.967.967,0,1,0,0-1.935H368.58a.967.967,0,1,0,0,1.935Z" transform="translate(689.527 750.479)" fill="#97055e"/>
      <path id="Path_52357" data-name="Path 52357" d="M375.711,372.019h-7.424c-.373,0-.675.434-.675.968s.3.967.675.967h7.424c.373,0,.676-.433.676-.967S376.084,372.019,375.711,372.019Z" transform="translate(689.527 750.479)" fill="#97055e"/>
      <path id="Path_52358" data-name="Path 52358" d="M375.589,380.727H368.41a.985.985,0,0,0,0,1.935h7.179a.985.985,0,0,0,0-1.935Z" transform="translate(689.527 750.479)" fill="#97055e"/>
      <path id="Path_52359" data-name="Path 52359" d="M377.287,389.435H368.58a.967.967,0,1,0,0,1.935h8.707a.967.967,0,1,0,0-1.935Z" transform="translate(689.527 750.479)" fill="#97055e"/>
      <g id="Group_1883" data-name="Group 1883" transform="translate(689.527 750.479)">
        <g id="Group_1882" data-name="Group 1882">
          <g id="Group_1881" data-name="Group 1881">
            <path id="Path_52360" data-name="Path 52360" d="M394.914,365.629a6.586,6.586,0,0,0,1.869.265h0a7.842,7.842,0,0,0,4.963-1.849,7.567,7.567,0,0,0,2.837-6.413.7.7,0,0,0-.5-.6,6.585,6.585,0,0,0-1.869-.265,7.847,7.847,0,0,0-4.963,1.848,7.568,7.568,0,0,0-2.837,6.414A.7.7,0,0,0,394.914,365.629Zm3.233-5.936a6.436,6.436,0,0,1,4.068-1.527,5.261,5.261,0,0,1,.995.093,6.268,6.268,0,0,1-2.358,4.7,6.435,6.435,0,0,1-4.069,1.527,5.345,5.345,0,0,1-.995-.092A6.266,6.266,0,0,1,398.147,359.693Z" fill="#97055e"/>
            <path id="Path_52361" data-name="Path 52361" d="M415.162,383.248m-2.18-5.016v-3.5a.7.7,0,0,0-.7-.7h-.733a12.661,12.661,0,0,0-2.074-4.552c-.194-.287-2.509-3.586-6.3-3.586a6.969,6.969,0,0,0-2.478.471c-3.345,1.268-4.7,1.4-5.13,1.4l-.085,0a.318.318,0,0,0-.343,0l-.085,0c-.428,0-1.785-.137-5.13-1.4a6.973,6.973,0,0,0-2.478-.471c-3.79,0-6.1,3.3-6.3,3.586a12.644,12.644,0,0,0-2.074,4.552h-.733a.7.7,0,0,0-.7.7v8.4a.7.7,0,0,0,.7.7h1.2a32.307,32.307,0,0,0,4.323,9.407c3.464,4.947,7.018,3.406,8.024,2.816a9.722,9.722,0,0,1,2.935-.775h.979a9.722,9.722,0,0,1,2.935.775,5.151,5.151,0,0,0,2.559.7c1.536,0,3.515-.729,5.465-3.514a30.317,30.317,0,0,0,2.84-5.207l.23-.551a1.528,1.528,0,0,0,.1-.287s.048-.09.151-.326l.085-.239c.013-.034.024-.067.036-.1q.1-.266.2-.535c.017-.046.033-.093.049-.139q.1-.282.193-.568l.028-.084c.066-.2.13-.409.193-.615l.028-.092c.06-.2.117-.4.173-.605l.017-.059h1.2a.7.7,0,0,0,.7-.7v-3.5M382.289,370.3l.019-.027c.019-.029,2.006-2.973,5.138-2.973a5.585,5.585,0,0,1,1.98.38c3.434,1.3,5,1.5,5.628,1.5a2.537,2.537,0,0,1,.513,0c.628,0,2.194-.2,5.628-1.5a5.581,5.581,0,0,1,1.98-.38c3.113,0,5.119,2.945,5.138,2.973l.019.027a11.171,11.171,0,0,1,1.768,3.735H380.52A11.192,11.192,0,0,1,382.289,370.3Zm29.29,8.637v3.5h-5.005a.7.7,0,0,0,0,1.4h3.049l-.029.1-.026.089q-.141.474-.3.95l-.017.05q-.342,1.017-.765,2.039l0,.008a29.184,29.184,0,0,1-2.875,5.365c-2.7,3.855-5.21,2.97-6.164,2.41a11.059,11.059,0,0,0-3.525-.963.68.68,0,0,0-.079,0H394.78a.692.692,0,0,0-.079,0,11.059,11.059,0,0,0-3.525.963c-.954.56-3.464,1.445-6.164-2.41a30.783,30.783,0,0,1-4.015-8.6h23.176a.7.7,0,0,0,0-1.4H379.042v-7H380.4v2.74a.7.7,0,1,0,1.4,0v-2.74h1.728v1.484a.7.7,0,0,0,1.4,0v-1.484h1.728v2.74a.7.7,0,1,0,1.4,0v-2.74h1.729v1.484a.7.7,0,1,0,1.4,0v-1.484h1.729v2.74a.7.7,0,1,0,1.4,0v-2.74h1.728v1.484a.7.7,0,0,0,1.4,0v-1.484h1.728v2.74a.7.7,0,1,0,1.4,0v-2.74h1.728v1.484a.7.7,0,0,0,1.4,0v-1.484h1.727v2.74a.7.7,0,1,0,1.4,0v-2.74h1.728v1.484a.7.7,0,1,0,1.4,0v-1.484h1.591v3.5Z" fill="#97055e"/>
          </g>
        </g>
      </g>
      <path id="Path_52362" data-name="Path 52362" d="M388.9,349.767H384.85a2.9,2.9,0,0,0-2.725-1.935h-5.183a5.785,5.785,0,0,0-10.919,0H360.84a2.9,2.9,0,0,0-2.725,1.935h-4.048a2.9,2.9,0,0,0-2.9,2.9V399.11a2.9,2.9,0,0,0,2.9,2.9h27.09v-1.935h-27.09a.968.968,0,0,1-.967-.968V352.669a.967.967,0,0,1,.967-.967h3.87v1.935h-.967a1.935,1.935,0,0,0-1.935,1.935v40.636a1.935,1.935,0,0,0,1.935,1.935h24.187v-1.935H356.97V355.572h1.145a2.9,2.9,0,0,0,2.725,1.935h21.285a2.9,2.9,0,0,0,2.725-1.935h1.145v10.549h1.935V355.572a1.935,1.935,0,0,0-1.935-1.935h-.967V351.7h3.87a.967.967,0,0,1,.967.967v13.452H391.8V352.669A2.9,2.9,0,0,0,388.9,349.767Zm-5.805,4.837a.967.967,0,0,1-.968.968H360.84a.967.967,0,0,1-.968-.968v-3.87a.967.967,0,0,1,.968-.967h5.9a.826.826,0,0,0,.1-.021.968.968,0,0,0,.178-.035.945.945,0,0,0,.556-.453.832.832,0,0,0,.075-.177.794.794,0,0,0,.039-.09,3.87,3.87,0,0,1,7.583,0,1,1,0,0,0,.041.1,1.157,1.157,0,0,0,.054.138.977.977,0,0,0,.118.175.735.735,0,0,0,.279.229.753.753,0,0,0,.462.131h5.9a.967.967,0,0,1,.968.967Z" transform="translate(689.527 750.479)" fill="#97055e"/>
      <g id="Group_1884" data-name="Group 1884" transform="translate(689.527 750.479)">
        <path id="Path_52363" data-name="Path 52363" d="M388.733,400.146H366.645v1.935h22.088a2.9,2.9,0,0,0,2.9-2.9v-3.832H389.7v3.832A.967.967,0,0,1,388.733,400.146Z" fill="#97055e"/>
        <path id="Path_52364" data-name="Path 52364" d="M366.645,396.276v1.935h19.186a1.935,1.935,0,0,0,1.935-1.935v-.93h-1.935v.93Z" fill="#97055e"/>
      </g>
      <g id="Group_1885" data-name="Group 1885" transform="translate(689.527 750.479)">
        <path id="Path_52365" data-name="Path 52365" d="M415.172,383.248m-2.181-5.016v-3.5a.7.7,0,0,0-.7-.7h-.733a12.661,12.661,0,0,0-2.074-4.552c-.2-.287-2.509-3.586-6.3-3.586a6.964,6.964,0,0,0-2.477.471c-3.346,1.268-4.7,1.4-5.131,1.4l-.084,0a.319.319,0,0,0-.344,0l-.084,0c-.428,0-1.785-.137-5.131-1.4a6.968,6.968,0,0,0-2.477-.471c-3.79,0-6.1,3.3-6.3,3.586a12.661,12.661,0,0,0-2.074,4.552h-.733a.7.7,0,0,0-.7.7v8.4a.7.7,0,0,0,.7.7h1.2a32.307,32.307,0,0,0,4.323,9.407c3.464,4.947,7.017,3.406,8.024,2.816a9.724,9.724,0,0,1,2.934-.775h.98a9.716,9.716,0,0,1,2.934.775,5.155,5.155,0,0,0,2.56.7c1.536,0,3.514-.729,5.464-3.514a30.25,30.25,0,0,0,2.84-5.207l.23-.551a1.493,1.493,0,0,0,.1-.287s.047-.09.151-.326l.085-.239c.012-.034.023-.067.036-.1.066-.177.132-.355.2-.535.016-.046.032-.093.049-.139.065-.188.13-.377.192-.568l.028-.084c.067-.2.131-.409.193-.615l.028-.092q.09-.3.174-.605l.017-.059h1.2a.7.7,0,0,0,.7-.7v-3.5M382.3,370.3l.018-.027c.02-.029,2.006-2.973,5.139-2.973a5.585,5.585,0,0,1,1.98.38c3.434,1.3,5,1.5,5.627,1.5a2.547,2.547,0,0,1,.514,0c.627,0,2.193-.2,5.627-1.5a5.585,5.585,0,0,1,1.98-.38c3.114,0,5.12,2.945,5.139,2.973l.018.027a11.192,11.192,0,0,1,1.769,3.735H380.53A11.192,11.192,0,0,1,382.3,370.3Zm29.289,8.637v3.5h-5a.7.7,0,1,0,0,1.4h3.048c-.009.034-.018.067-.028.1l-.027.089q-.139.474-.3.95l-.017.05q-.34,1.017-.765,2.039l0,.008a29.3,29.3,0,0,1-2.875,5.365c-2.7,3.855-5.211,2.97-6.165,2.41a11.049,11.049,0,0,0-3.524-.963.7.7,0,0,0-.079,0H394.79a.71.71,0,0,0-.08,0,11.049,11.049,0,0,0-3.524.963c-.954.56-3.465,1.445-6.164-2.41a30.753,30.753,0,0,1-4.016-8.6h23.176a.7.7,0,0,0,0-1.4h-25.13v-7h1.355v2.74a.7.7,0,1,0,1.4,0v-2.74h1.729v1.484a.7.7,0,1,0,1.4,0v-1.484h1.728v2.74a.7.7,0,1,0,1.4,0v-2.74H389.8v1.484a.7.7,0,1,0,1.4,0v-1.484s1.3-.685,1.728,0,0,2.74,0,2.74a.7.7,0,1,0,1.4,0v-2.74h1.728v1.484a.7.7,0,1,0,1.4,0v-1.484H399.2v2.74a.7.7,0,1,0,1.4,0v-2.74h1.729v1.484a.7.7,0,1,0,1.4,0v-1.484h1.728v2.74a.7.7,0,1,0,1.4,0v-2.74h1.728v1.484a.7.7,0,1,0,1.4,0v-1.484h1.592v3.5Z" fill="#97055e"/>
      </g>
      <rect id="Rectangle_1647" data-name="Rectangle 1647" width="37.453" height="9.804" transform="translate(1065.914 1124.511)" fill="none"/>
    </g>
  </g>
</svg>
