<svg xmlns="http://www.w3.org/2000/svg" width="25" height="25" viewBox="0 0 25 25">
    <path d="M24.023 25a.977.977 0 0 1-.977-.977 3.508 3.508 0 0 0-3.492-3.516h-.828a3.508 3.508 0 0 0-3.492 3.516.977.977 0 0 1-1.953 0 5.463 5.463 0 0 1 5.446-5.469h.828A5.463 5.463 0 0 1 25 24.023a.977.977 0 0 1-.977.977zm-.781-12.061a4.15 4.15 0 1 0-4.15 4.15 4.155 4.155 0 0 0 4.15-4.15zm-1.953 0a2.2 2.2 0 1 1-2.2-2.2 2.2 2.2 0 0 1 2.2 2.2zm-9.961 11.084a.977.977 0 0 0-.977-.977H5.858a3.91 3.91 0 0 1-3.905-3.905V5.858a3.91 3.91 0 0 1 3.905-3.905h8.987a3.91 3.91 0 0 1 3.905 3.905.977.977 0 1 0 1.953 0A5.865 5.865 0 0 0 14.845 0H5.858A5.865 5.865 0 0 0 0 5.858v13.284A5.865 5.865 0 0 0 5.858 25h4.493a.977.977 0 0 0 .977-.977zm1.611-12.939a.977.977 0 0 0-.977-.977H6.689a.977.977 0 0 0 0 1.953h5.273a.977.977 0 0 0 .977-.976zm1.953-3.76a.977.977 0 0 0-.977-.977H6.689a.977.977 0 0 0 0 1.953h7.227a.977.977 0 0 0 .977-.976zm-1.953 11.23a.977.977 0 0 0-.977-.977H6.689a.977.977 0 0 0 0 1.953h5.273a.977.977 0 0 0 .977-.975zm0-3.76a.977.977 0 0 0-.977-.977H6.689a.977.977 0 0 0 0 1.953h5.273a.977.977 0 0 0 .977-.975z"/>
</svg>
