<svg xmlns="http://www.w3.org/2000/svg" width="23" height="23" viewBox="0 0 23 23">
    <path d="M33.914 47H25.19A1.19 1.19 0 0 1 24 45.81V25.19A1.19 1.19 0 0 1 25.19 24h8.724a1.19 1.19 0 0 1 1.19 1.19v4.759a1.19 1.19 0 0 1-2.379 0v-3.57h-6.346v18.242h6.345v-3.569a1.19 1.19 0 0 1 2.379 0v4.758A1.19 1.19 0 0 1 33.914 47zm8.592-11.5l-1.586-1.19H30.741a1.19 1.19 0 1 0 0 2.379H40.92zm-2.326 5.71l6.345-4.759a1.19 1.19 0 0 0 0-1.9l-6.346-4.761a1.19 1.19 0 0 0-1.428 1.9l5.077 3.81-5.076 3.807a1.19 1.19 0 1 0 1.426 1.9z" transform="translate(-24 -24)"/>
</svg>
