<svg xmlns="http://www.w3.org/2000/svg" width="20.5" height="20.5" viewBox="0 0 20.5 20.5"><defs><style>.a{fill:#97005e;}</style></defs><g transform="translate(4.867 2.576)"><path class="a" d="M136.614,64.554a.772.772,0,0,0-1.092,0L126.253,73.8l-3.344-3.632a.773.773,0,0,0-1.137,1.047l3.889,4.223a.772.772,0,0,0,.552.249h.017a.773.773,0,0,0,.545-.225l9.838-9.812A.772.772,0,0,0,136.614,64.554Z" transform="translate(-121.568 -64.327)"/></g><path class="a" d="M19.727,9.477a.773.773,0,0,0-.773.773,8.7,8.7,0,1,1-8.7-8.7A.773.773,0,1,0,10.25,0,10.25,10.25,0,1,0,20.5,10.25.773.773,0,0,0,19.727,9.477Z"/></svg>