<svg xmlns="http://www.w3.org/2000/svg" id="Component_2_1" width="220.705" height="54.835" viewBox="0 0 220.705 54.835">
    <defs>
        <style>
            .cls-2{fill:#fff}
        </style>
    </defs>
    <g id="Component_8_1">
        <path id="Rectangle_906" fill="#97005e" d="M0 0H56.835V54.835H0z"/>
        <path id="Path_2543" d="M90.815 197.445H87v-7.337l-3.44 4.242h-.3l-3.46-4.242v7.337h-3.7V184.8h3.45l3.9 4.73 3.905-4.73h3.458z" class="cls-2" transform="translate(-69.194 -166.637)"/>
        <g id="Group_649" transform="translate(6.911 17.014)">
            <path id="Path_2544" d="M338.114 191.182a4.169 4.169 0 0 0-.588-2.394 2.873 2.873 0 0 0-1.412-1.153 5.063 5.063 0 0 0-1.68-.29h-1.624v7.455h1.626a4.65 4.65 0 0 0 2.587-.708c.728-.468 1.092-1.444 1.092-2.913m3.9.159a6 6 0 0 1-.709 3.121 6.726 6.726 0 0 1-1.674 1.9 6.022 6.022 0 0 1-3.812 1.076h-6.826V184.8h5.258a14.11 14.11 0 0 1 2.03.122 8.567 8.567 0 0 1 1.525.355 5.739 5.739 0 0 1 1.148.5 7.221 7.221 0 0 1 .851.6 5.643 5.643 0 0 1 1.139 1.252 5.938 5.938 0 0 1 .78 1.66 6.877 6.877 0 0 1 .29 2.055" class="cls-2" transform="translate(-299.01 -184.786)"/>
            <path id="Rectangle_907" d="M0 0H9.382V2.549H0z" class="cls-2" transform="translate(17.689 0)"/>
            <path id="Rectangle_908" d="M0 0H9.382V2.554H0z" class="cls-2" transform="translate(17.689 4.838)"/>
            <path id="Rectangle_909" d="M0 0H9.382V2.554H0z" class="cls-2" transform="translate(17.689 10.114)"/>
            <path id="Path_2545" d="M86.712 316.824v1a9.046 9.046 0 0 0-4.22-1.132 4.952 4.952 0 0 0-3.68 1.511 5.151 5.151 0 0 0-1.481 3.763 5.07 5.07 0 0 0 1.488 3.763 5.206 5.206 0 0 0 3.812 1.474 8.937 8.937 0 0 0 4.212-1.224v.959a8.874 8.874 0 0 1-4.2 1.128 6.205 6.205 0 0 1-4.5-1.748 6.129 6.129 0 0 1 .035-8.723 6.1 6.1 0 0 1 4.38-1.765 9.982 9.982 0 0 1 4.157.993" class="cls-2" transform="translate(-76.307 -300.282)"/>
            <path id="Path_2546" d="M183.853 323.766l-2.562-5.588-2.555 5.588zm-2.281-7.091l5.472 11.968h-.961l-1.885-4.108h-5.816l-1.88 4.108h-.961l5.506-11.968z" class="cls-2" transform="translate(-163.753 -301.026)"/>
            <path id="Path_2547" d="M291.353 318.027v4.67h1.976a3.721 3.721 0 0 0 2.3-.608 2.26 2.26 0 0 0-.011-3.447 3.782 3.782 0 0 0-2.323-.614zm-.929-.761h3.056a4.509 4.509 0 0 1 2.926.829 2.758 2.758 0 0 1 1.013 2.245 2.974 2.974 0 0 1-2.258 2.9 5.285 5.285 0 0 1 1.589 1.813l2.7 4.108h-1.065l-2.107-3.257a8.038 8.038 0 0 0-1.614-2.044 3.014 3.014 0 0 0-1.7-.4h-1.611v5.7h-.929z" class="cls-2" transform="translate(-265.012 -301.547)"/>
            <path id="Path_2548" d="M387.985 317.266v.761h-5.568v4.773h5.4v.76h-5.4v4.84h5.7v.763h-6.626v-11.9z" class="cls-2" transform="translate(-345.28 -301.547)"/>
            <path id="Path_2549" d="M90.815 197.445H87v-7.337l-3.44 4.242h-.3l-3.46-4.242v7.337h-3.7V184.8h3.45l3.9 4.73 3.905-4.73h3.458z" class="cls-2" transform="translate(-76.105 -184.79)"/>
            <path id="Path_2550" d="M338.114 191.182a4.169 4.169 0 0 0-.588-2.394 2.873 2.873 0 0 0-1.412-1.153 5.063 5.063 0 0 0-1.68-.29h-1.624v7.455h1.626a4.65 4.65 0 0 0 2.587-.708c.728-.468 1.092-1.444 1.092-2.913m3.9.159a6 6 0 0 1-.709 3.121 6.726 6.726 0 0 1-1.674 1.9 6.022 6.022 0 0 1-3.812 1.076h-6.826V184.8h5.258a14.11 14.11 0 0 1 2.03.122 8.567 8.567 0 0 1 1.525.355 5.739 5.739 0 0 1 1.148.5 7.221 7.221 0 0 1 .851.6 5.643 5.643 0 0 1 1.139 1.252 5.938 5.938 0 0 1 .78 1.66 6.877 6.877 0 0 1 .29 2.055" class="cls-2" transform="translate(-299.01 -184.786)"/>
            <path id="Rectangle_910" d="M0 0H9.382V2.549H0z" class="cls-2" transform="translate(17.689 0)"/>
            <path id="Rectangle_911" d="M0 0H9.382V2.554H0z" class="cls-2" transform="translate(17.689 4.838)"/>
            <path id="Rectangle_912" d="M0 0H9.382V2.554H0z" class="cls-2" transform="translate(17.689 10.114)"/>
            <path id="Path_2551" d="M86.712 316.824v1a9.046 9.046 0 0 0-4.22-1.132 4.952 4.952 0 0 0-3.68 1.511 5.151 5.151 0 0 0-1.481 3.763 5.07 5.07 0 0 0 1.488 3.763 5.206 5.206 0 0 0 3.812 1.474 8.937 8.937 0 0 0 4.212-1.224v.959a8.874 8.874 0 0 1-4.2 1.128 6.205 6.205 0 0 1-4.5-1.748 6.129 6.129 0 0 1 .035-8.723 6.1 6.1 0 0 1 4.38-1.765 9.982 9.982 0 0 1 4.157.993" class="cls-2" transform="translate(-76.307 -300.282)"/>
            <path id="Path_2552" d="M183.853 323.766l-2.562-5.588-2.555 5.588zm-2.281-7.091l5.472 11.968h-.961l-1.885-4.108h-5.816l-1.88 4.108h-.961l5.506-11.968z" class="cls-2" transform="translate(-163.753 -301.026)"/>
            <path id="Path_2553" d="M291.353 318.027v4.67h1.976a3.721 3.721 0 0 0 2.3-.608 2.26 2.26 0 0 0-.011-3.447 3.782 3.782 0 0 0-2.323-.614zm-.929-.761h3.056a4.509 4.509 0 0 1 2.926.829 2.758 2.758 0 0 1 1.013 2.245 2.974 2.974 0 0 1-2.258 2.9 5.285 5.285 0 0 1 1.589 1.813l2.7 4.108h-1.065l-2.107-3.257a8.038 8.038 0 0 0-1.614-2.044 3.014 3.014 0 0 0-1.7-.4h-1.611v5.7h-.929z" class="cls-2" transform="translate(-265.012 -301.547)"/>
            <path id="Path_2554" d="M387.985 317.266v.761h-5.568v4.773h5.4v.76h-5.4v4.84h5.7v.763h-6.626v-11.9z" class="cls-2" transform="translate(-345.28 -301.547)"/>
            <path id="Path_2555" d="M596.76 463.758l1.164 2.882 1.225-2.882h.763l1.231 2.892 1.16-2.892h.923l-1.922 4.732H601l-1.471-3.465-1.478 3.465h-.3l-1.927-4.732z" class="cls-2" transform="translate(-534.203 -430.67)"/>
            <path id="Path_2556" d="M669.862 463.758v.705h-2.115v1.226h2.026v.708h-2.026v1.328h2.162v.705h-3.064v-4.673z" class="cls-2" transform="translate(-596.801 -430.67)"/>
            <path id="Path_2557" d="M702.771 463.246a.531.531 0 0 1 .429.2.805.805 0 0 1 .159.526 1.209 1.209 0 0 1-1.018 1.19v-.174a.892.892 0 0 0 .32-.707l-.007-.1a.421.421 0 0 1-.378-.459.447.447 0 0 1 .142-.334.483.483 0 0 1 .352-.138" class="cls-2" transform="translate(-628.032 -430.218)"/>
            <path id="Path_2558" d="M723.03 463.758v3.968h2.27v.705h-3.171v-4.673z" class="cls-2" transform="translate(-645.528 -430.67)"/>
            <path id="Path_2559" d="M759.025 463.758v3.968h2.265v.705h-3.169v-4.673z" class="cls-2" transform="translate(-677.255 -430.67)"/>
            <path id="Path_2560" d="M811.5 463.758v.705h-1.66v3.968h-.9v-3.968h-1.658v-.705z" class="cls-2" transform="translate(-720.584 -430.67)"/>
            <path id="Path_2561" d="M854.392 463.758a1.572 1.572 0 0 1 1.073.365 1.2 1.2 0 0 1 .414.949 1.181 1.181 0 0 1-.205.695 1.364 1.364 0 0 1-.611.468 1.3 1.3 0 0 1 .4.327 4.029 4.029 0 0 1 .433.7q.426.848.634 1.171h-1.006a4.872 4.872 0 0 1-.282-.493 11.429 11.429 0 0 0-.568-1 1.419 1.419 0 0 0-.348-.369.706.706 0 0 0-.385-.11h-.327v1.975h-.9v-4.673h1.682m-.205 1.993a.819.819 0 0 0 .558-.177.613.613 0 0 0 .2-.485.575.575 0 0 0-.2-.48.906.906 0 0 0-.572-.158h-.56v1.3z" class="cls-2" transform="translate(-760.628 -430.67)"/>
            <path id="Path_2562" d="M896.975 463.758v.705h-2.116v1.226h2.027v.708h-2.027v1.328h2.165v.705h-3.067v-4.673z" class="cls-2" transform="translate(-796.984 -430.67)"/>
            <path id="Path_2563" d="M929.743 463.758l2.063 4.673h-.953l-.484-1.137h-2.078l-.449 1.137h-.949l1.927-4.673zm-1.177 2.85h1.508l-.789-1.851z" class="cls-2" transform="translate(-826.015 -430.67)"/>
            <path id="Path_2564" d="M973.7 463.758v.705h-1.658v3.968h-.9v-3.968h-1.658v-.705z" class="cls-2" transform="translate(-863.554 -430.67)"/>
            <path id="Path_2565" d="M1029.651 463.758l1.131 1.561 1.143-1.561H1033l-1.767 2.359v2.314h-.9v-2.322l-1.776-2.351z" class="cls-2" transform="translate(-915.623 -430.67)"/>
            <path id="Path_2566" d="M1072.812 463.246a2.816 2.816 0 0 1 1.306.3 2.3 2.3 0 0 1 .925.861 2.382 2.382 0 0 1 .009 2.45 2.285 2.285 0 0 1-.924.868 2.744 2.744 0 0 1-1.322.313 2.774 2.774 0 0 1-1.319-.315 2.315 2.315 0 0 1-1.256-2.08 2.368 2.368 0 0 1 .331-1.208 2.309 2.309 0 0 1 .915-.877 2.776 2.776 0 0 1 1.336-.313m-1.65 2.4a1.666 1.666 0 0 0 .212.835 1.52 1.52 0 0 0 .585.578 1.778 1.778 0 0 0 .853.2 1.619 1.619 0 0 0 1.182-.45 1.558 1.558 0 0 0 .462-1.165 1.691 1.691 0 0 0-.207-.838 1.472 1.472 0 0 0-.59-.578 1.875 1.875 0 0 0-1.708 0 1.448 1.448 0 0 0-.584.575 1.7 1.7 0 0 0-.205.838" class="cls-2" transform="translate(-952.357 -430.218)"/>
            <path id="Path_2567" d="M1125.49 463.758v2.719a1.509 1.509 0 0 0 .126.667 1 1 0 0 0 .41.406 1.338 1.338 0 0 0 .663.161 1.5 1.5 0 0 0 .706-.151.952.952 0 0 0 .421-.416 1.606 1.606 0 0 0 .134-.728v-2.658h.9v2.777a1.842 1.842 0 0 1-.566 1.449 2.315 2.315 0 0 1-1.6.506 2.552 2.552 0 0 1-1.125-.231 1.647 1.647 0 0 1-.728-.666 2.037 2.037 0 0 1-.252-1.025v-2.81h.906" class="cls-2" transform="translate(-1000.266 -430.67)"/>
            <path id="Path_2568" d="M1183.6 463.758l1.165 2.882 1.225-2.882h.761l1.232 2.892 1.159-2.892h.925l-1.925 4.732h-.3l-1.472-3.465-1.478 3.465h-.294l-1.926-4.732z" class="cls-2" transform="translate(-1051.467 -430.67)"/>
            <path id="Path_2569" d="M1256.691 463.758v.705h-2.12v1.226h2.028v.708h-2.028v1.328h2.164v.705h-3.066v-4.673z" class="cls-2" transform="translate(-1114.047 -430.67)"/>
            <path id="Path_2570" d="M1291.593 463.758v3.968h2.266v.705h-3.169v-4.673z" class="cls-2" transform="translate(-1146.677 -430.67)"/>
            <path id="Path_2571" d="M1327.6 463.758v3.968h2.267v.705h-3.17v-4.673z" class="cls-2" transform="translate(-1178.417 -430.67)"/>
        </g>
        <g id="Group_650" transform="translate(63.533 18.057)">
            <path id="Path_2572" d="M600.134 184.784v4.585h5.653v-4.585h2.105v10.893h-2.105v-4.6h-5.653v4.6h-2.105v-10.893z" class="cls-2" transform="translate(-598.029 -184.644)"/>
            <path id="Path_2573" d="M719.833 183.6a6.544 6.544 0 0 1 3.045.7 5.5 5.5 0 0 1 .023 9.754 6.886 6.886 0 0 1-6.16-.012 5.391 5.391 0 0 1-2.928-4.85 5.48 5.48 0 0 1 .772-2.815 5.361 5.361 0 0 1 2.129-2.047 6.488 6.488 0 0 1 3.119-.73zm-3.844 5.591a3.879 3.879 0 0 0 .491 1.949 3.413 3.413 0 0 0 1.368 1.341 4.1 4.1 0 0 0 1.984.476 3.785 3.785 0 0 0 2.756-1.053 3.622 3.622 0 0 0 1.08-2.713 3.928 3.928 0 0 0-.487-1.953 3.372 3.372 0 0 0-1.372-1.345 4.393 4.393 0 0 0-3.984 0 3.333 3.333 0 0 0-1.361 1.341 3.974 3.974 0 0 0-.475 1.957z" class="cls-2" transform="translate(-700.086 -183.6)"/>
            <path id="Path_2574" d="M846.866 183.6a6.368 6.368 0 0 1 3.064.8v1.871a6 6 0 0 0-3-1.021 2.173 2.173 0 0 0-1.244.308.952.952 0 0 0-.448.823q0 .616.834 1.138.234.156 1.8.873a5.169 5.169 0 0 1 1.934 1.4 2.959 2.959 0 0 1 .593 1.856 2.832 2.832 0 0 1-1.01 2.265 3.889 3.889 0 0 1-2.616.862 6.2 6.2 0 0 1-1.8-.23 7.79 7.79 0 0 1-1.688-.791v-2.074a5.29 5.29 0 0 0 3.29 1.45 2.12 2.12 0 0 0 1.248-.335 1.038 1.038 0 0 0 .476-.889 1.4 1.4 0 0 0-.827-1.232q-.686-.374-1.77-.9a5.212 5.212 0 0 1-1.922-1.365 2.779 2.779 0 0 1-.635-1.809 2.653 2.653 0 0 1 1.021-2.187 4.2 4.2 0 0 1 2.7-.813z" class="cls-2" transform="translate(-814.083 -183.6)"/>
            <path id="Path_2575" d="M940.061 184.784a3.509 3.509 0 0 1 2.483.885 2.969 2.969 0 0 1 .955 2.281 2.933 2.933 0 0 1-.967 2.285 3.659 3.659 0 0 1-2.55.873h-2.027v4.569h-2.105v-10.893zm-.522 4.678a2.02 2.02 0 0 0 1.314-.386 1.39 1.39 0 0 0 .471-1.142q0-1.5-1.934-1.5h-1.435v3.033z" class="cls-2" transform="translate(-895.795 -184.644)"/>
            <path id="Path_2576" d="M1033.161 184.784v10.893h-2.105v-10.893z" class="cls-2" transform="translate(-979.712 -184.644)"/>
            <path id="Path_2577" d="M1088.553 184.784v1.645h-3.867v9.247h-2.105v-9.247h-3.867v-1.645z" class="cls-2" transform="translate(-1021.718 -184.644)"/>
            <path id="Path_2578" d="M1177.61 184.784l4.811 10.893h-2.221l-1.131-2.651h-4.842l-1.052 2.651h-2.207l4.491-10.893zm-2.745 6.643h3.516l-1.84-4.312z" class="cls-2" transform="translate(-1103.034 -184.644)"/>
            <path id="Path_2579" d="M1296.485 184.784v9.247h5.286v1.645h-7.392v-10.892z" class="cls-2" transform="translate(-1211.814 -184.644)"/>
            <path id="Path_2580" d="M1383.9 183.6a6.368 6.368 0 0 1 3.064.8v1.871a5.994 5.994 0 0 0-3-1.021 2.173 2.173 0 0 0-1.244.308.952.952 0 0 0-.449.823q0 .616.834 1.138.234.156 1.8.873a5.171 5.171 0 0 1 1.934 1.4 2.959 2.959 0 0 1 .593 1.856 2.832 2.832 0 0 1-1.01 2.265 3.888 3.888 0 0 1-2.616.862 6.2 6.2 0 0 1-1.8-.23 7.807 7.807 0 0 1-1.688-.791v-2.074a5.293 5.293 0 0 0 3.291 1.45 2.121 2.121 0 0 0 1.248-.335 1.037 1.037 0 0 0 .475-.889 1.4 1.4 0 0 0-.826-1.232q-.686-.374-1.77-.9a5.21 5.21 0 0 1-1.922-1.365 2.78 2.78 0 0 1-.635-1.809 2.653 2.653 0 0 1 1.022-2.187 4.2 4.2 0 0 1 2.699-.813z" class="cls-2" transform="translate(-1287.441 -183.6)"/>
        </g>
        <g id="Group_651" transform="translate(74.526 34.102)">
            <path id="Path_2581" d="M732.3 325.617l3.028 3.635 3.028-3.635h1.59v9.217h-1.781v-6.472h-.053l-2.665 3.246h-.25l-2.666-3.246h-.053v6.472H730.7v-9.217z" class="cls-2" transform="translate(-730.696 -325.498)"/>
            <path id="Path_2582" d="M845.479 325.617v1.392H841.3v2.421h4v1.392h-4v2.619h4.269v1.392h-6.05v-9.217z" class="cls-2" transform="translate(-826.618 -325.498)"/>
            <path id="Path_2583" d="M922.1 325.617a5.439 5.439 0 0 1 2.56.587 4.259 4.259 0 0 1 1.742 1.649 4.65 4.65 0 0 1 .62 2.389 4.594 4.594 0 0 1-.623 2.4 4.192 4.192 0 0 1-1.772 1.62 5.81 5.81 0 0 1-2.632.574h-3.754v-9.217zm-.185 7.825a3.22 3.22 0 0 0 2.372-.887 3.5 3.5 0 0 0-.007-4.681 3.356 3.356 0 0 0-2.425-.864h-1.834v6.433z" class="cls-2" transform="translate(-896.007 -325.498)"/>
            <path id="Path_2584" d="M1022.118 325.617v9.217h-1.781v-9.217z" class="cls-2" transform="translate(-985.994 -325.498)"/>
            <path id="Path_2585" d="M1068.482 324.616a6.649 6.649 0 0 1 1.538.178 7.772 7.772 0 0 1 1.623.607v1.676a7.665 7.665 0 0 0-1.573-.706 5.2 5.2 0 0 0-1.508-.218 3.832 3.832 0 0 0-1.775.406 2.979 2.979 0 0 0-1.231 1.145 3.332 3.332 0 0 0 0 3.3 2.923 2.923 0 0 0 1.227 1.131 3.9 3.9 0 0 0 1.781.4 4.782 4.782 0 0 0 1.448-.218 10.512 10.512 0 0 0 1.739-.785v1.676a8.042 8.042 0 0 1-1.649.667 6.94 6.94 0 0 1-1.755.2 5.694 5.694 0 0 1-2.606-.581 4.357 4.357 0 0 1-1.8-1.672 4.557 4.557 0 0 1-.656-2.392 4.7 4.7 0 0 1 .677-2.5 4.533 4.533 0 0 1 1.86-1.709 5.82 5.82 0 0 1 2.66-.605z" class="cls-2" transform="translate(-1023.843 -324.616)"/>
            <path id="Path_2586" d="M1160.193 325.617l4.071 9.217h-1.88l-.957-2.243h-4.1l-.891 2.243h-1.867l3.8-9.217zm-2.322 5.621h2.976l-1.558-3.648z" class="cls-2" transform="translate(-1104.313 -325.498)"/>
            <path id="Path_2587" d="M1260.78 325.617v7.825h4.473v1.392H1259v-9.217z" class="cls-2" transform="translate(-1196.359 -325.498)"/>
            <path id="Path_2588" d="M1383.029 324.616a6.649 6.649 0 0 1 1.538.178 7.77 7.77 0 0 1 1.623.607v1.676a7.657 7.657 0 0 0-1.573-.706 5.2 5.2 0 0 0-1.508-.218 3.834 3.834 0 0 0-1.775.406 2.974 2.974 0 0 0-1.23 1.145 3.33 3.33 0 0 0 0 3.3 2.928 2.928 0 0 0 1.227 1.131 3.9 3.9 0 0 0 1.781.4 4.785 4.785 0 0 0 1.448-.218 10.53 10.53 0 0 0 1.739-.785v1.676a8.035 8.035 0 0 1-1.65.667 6.935 6.935 0 0 1-1.755.2 5.694 5.694 0 0 1-2.606-.581 4.355 4.355 0 0 1-1.8-1.672 4.556 4.556 0 0 1-.657-2.392 4.706 4.706 0 0 1 .677-2.5 4.537 4.537 0 0 1 1.861-1.709 5.82 5.82 0 0 1 2.66-.605z" class="cls-2" transform="translate(-1301.094 -324.616)"/>
            <path id="Path_2589" d="M1483.091 325.617v1.392h-4.176v2.421h4v1.392h-4v2.619h4.269v1.392h-6.05v-9.217z" class="cls-2" transform="translate(-1388.629 -325.498)"/>
            <path id="Path_2590" d="M1557.418 325.617l5.475 6.433v-6.433h1.742v9.217h-1.535l-5.5-6.534v6.538h-1.742v-9.217z" class="cls-2" transform="translate(-1458.016 -325.498)"/>
            <path id="Path_2591" d="M1663.268 325.617v1.392H1660v7.825h-1.782v-7.825h-3.272v-1.392z" class="cls-2" transform="translate(-1545.354 -325.498)"/>
            <path id="Path_2592" d="M1753.451 325.617a3.091 3.091 0 0 1 2.118.719 2.378 2.378 0 0 1 .818 1.874 2.339 2.339 0 0 1-.406 1.369 2.692 2.692 0 0 1-1.2.92 2.668 2.668 0 0 1 .785.647 8.269 8.269 0 0 1 .851 1.379q.844 1.676 1.254 2.309h-1.986a11.166 11.166 0 0 1-.554-.97 20.856 20.856 0 0 0-1.122-1.983 2.684 2.684 0 0 0-.686-.726 1.362 1.362 0 0 0-.759-.214h-.647v3.893h-1.781v-9.217zm-.4 3.932a1.61 1.61 0 0 0 1.1-.35 1.207 1.207 0 0 0 .4-.957 1.135 1.135 0 0 0-.4-.947 1.784 1.784 0 0 0-1.129-.313h-1.108v2.566z" class="cls-2" transform="translate(-1629.259 -325.498)"/>
            <path id="Path_2593" d="M1843.044 325.617v1.392h-4.176v2.421h4v1.392h-4v2.619h4.269v1.392h-6.05v-9.217z" class="cls-2" transform="translate(-1705.902 -325.498)"/>
            <path id="Path_2594" d="M1914.95 324.616a5.387 5.387 0 0 1 2.592.673v1.583a5.072 5.072 0 0 0-2.54-.864 1.839 1.839 0 0 0-1.052.261.805.805 0 0 0-.379.7q0 .521.706.963.2.132 1.524.739a4.375 4.375 0 0 1 1.636 1.188 2.5 2.5 0 0 1 .5 1.57 2.4 2.4 0 0 1-.854 1.917 3.293 3.293 0 0 1-2.214.729 5.238 5.238 0 0 1-1.521-.195 6.6 6.6 0 0 1-1.428-.67v-1.755a4.478 4.478 0 0 0 2.784 1.227 1.794 1.794 0 0 0 1.056-.284.878.878 0 0 0 .4-.752 1.189 1.189 0 0 0-.7-1.042q-.58-.317-1.5-.759a4.408 4.408 0 0 1-1.626-1.155 2.349 2.349 0 0 1-.538-1.531 2.245 2.245 0 0 1 .864-1.851 3.554 3.554 0 0 1 2.29-.692z" class="cls-2" transform="translate(-1771.76 -324.616)"/>
        </g>
        <g id="Group_652" transform="translate(64.493 33.661)">
            <path id="Path_2595" d="M600.121 321.8a1.888 1.888 0 0 0-1.442-.634 2.115 2.115 0 0 0-1.372.441 1.315 1.315 0 0 0-.556 1.031 1 1 0 0 0 .227.651.818.818 0 0 0 .677.291.863.863 0 0 0 .627-.249.8.8 0 0 0 .256-.587.971.971 0 0 0-.2-.56.5.5 0 0 1-.114-.235.14.14 0 0 1 .076-.138.784.784 0 0 1 .362-.064 1.128 1.128 0 0 1 .856.353 1.281 1.281 0 0 1 .34.918 1.541 1.541 0 0 1-.78 1.426 5.29 5.29 0 0 1-2.632.494 4.2 4.2 0 0 0-2.941.807 2.48 2.48 0 0 0-.825 1.8 1.635 1.635 0 0 0 1.638 1.647 1.312 1.312 0 0 0 .94-.356 1.2 1.2 0 0 0 .369-.894.807.807 0 0 0-.237-.615.78.78 0 0 0-.552-.221.7.7 0 0 0-.563.263.952.952 0 0 0-.211.635c0 .028 0 .075.008.145l.006.084c0 .161-.062.194-.171.194a.567.567 0 0 1-.41-.233.881.881 0 0 1-.212-.617 1.271 1.271 0 0 1 .622-1.08 2.487 2.487 0 0 1 1.465-.453 2.225 2.225 0 0 1 1.608.573 1.8 1.8 0 0 1 .587 1.342 2.457 2.457 0 0 1-1.218 2.023 5.1 5.1 0 0 1-2.985.866 4.453 4.453 0 0 1-3.07-1.1 3.146 3.146 0 0 1-1.226-2.318 1.509 1.509 0 0 1 .4-1.046.953.953 0 0 1 1.5-.132 1.146 1.146 0 0 0 .686.344.513.513 0 0 0 .423-.185.586.586 0 0 0 .138-.37c0-.488-.4-.735-1.18-.735a.225.225 0 0 1-.161-.051.931.931 0 0 1-.164-.316 1.811 1.811 0 0 1-.1-.638 2.032 2.032 0 0 1 .7-1.508 2.154 2.154 0 0 1 1.5-.666 1.3 1.3 0 0 1 .823.261.767.767 0 0 1 .327.643 1.449 1.449 0 0 1-.114.553.8.8 0 0 0-.085.287.247.247 0 0 0 .264.27.809.809 0 0 0 .643-.445 1.657 1.657 0 0 0 .274-.917 1.444 1.444 0 0 0-.576-1.147 2.141 2.141 0 0 0-1.405-.469 2.846 2.846 0 0 0-1.434.4 3.484 3.484 0 0 0-1.128 1.042 2.457 2.457 0 0 0-.449 1.421 3.3 3.3 0 0 0 .287 1.281 2.648 2.648 0 0 0-2.334 2.756 3.511 3.511 0 0 0 .416 1.675 3.9 3.9 0 0 0 1.135 1.313 5.713 5.713 0 0 0 1.5.81 6.373 6.373 0 0 0 2.057.277 6.745 6.745 0 0 0 2.651-.468 4.741 4.741 0 0 0 1.861-1.441 3.271 3.271 0 0 0 .777-2.041 2.668 2.668 0 0 0-1-2.106 5.84 5.84 0 0 0 1.679-.3 2.625 2.625 0 0 0 1.225-.959 2.542 2.542 0 0 0 .487-1.51 2.183 2.183 0 0 0-.57-1.509" class="cls-2" transform="translate(-587.902 -321.164)"/>
        </g>
    </g>
</svg>
