<svg xmlns="http://www.w3.org/2000/svg" width="25" height="25" viewBox="0 0 25 25">
    <path fill="#fff" d="M-148.059 32.285l-5.91-5.684v-4.524a1.07 1.07 0 0 0-1.064-1.063 1.07 1.07 0 0 0-1.064 1.063v2.479l-3.408-3.277a1.063 1.063 0 0 0-1.438 0l-11.442 11.005a1.025 1.025 0 0 0-.051 1.488 1.027 1.027 0 0 0 1.489.051l.159-.153v11.267A1.07 1.07 0 0 0-169.726 46h19.057a1.1 1.1 0 0 0 1.064-1.012v-11.21l.107.1c.778.537 1.33.158 1.489-.107a1.073 1.073 0 0 0-.05-1.486zm-10.276 11.645h-3.725v-5.69h3.725zm6.6 0h-4.524v-6.753a1.07 1.07 0 0 0-1.064-1.063h-5.8a1.07 1.07 0 0 0-1.064 1.063v6.753h-4.472V33.507h16.928V43.93zm-16.723-12.493l8.259-7.923 8.177 7.923z" transform="translate(172.734 -21)"/>
</svg>
